<?xml version="1.0" encoding="UTF-8"?>
<!DOCTYPE svg PUBLIC "-//W3C//DTD SVG 1.1//EN" "http://www.w3.org/Graphics/SVG/1.1/DTD/svg11.dtd">
<svg version="1.1" xmlns="http://www.w3.org/2000/svg" xmlns:xlink="http://www.w3.org/1999/xlink" x="0px" y="0px" width="1200" height="900" viewBox="0, 0, 1200, 900">
  <g id="Background">
    <rect x="0" y="0" width="1200" height="900" fill="#000000" fill-opacity="0"/>
  </g>
  <g id="Layer 1">
    <path d="M780.5,120.5 L980.5,120.5" fill-opacity="0" stroke="#737370" stroke-width="4"/>
    <path d="M780.5,360.5 L980.5,360.5" fill-opacity="0" stroke="#737370" stroke-width="4"/>
    <path d="M900.5,240.5 L900.5,440.5" fill-opacity="0" stroke="#737370" stroke-width="4"/>
    <path d="M660.5,240.5 L660.5,440.5" fill-opacity="0" stroke="#737370" stroke-width="4"/>
    <path d="M180.5,120.5 L380.5,120.5" fill-opacity="0" stroke="#737370" stroke-width="4"/>
    <path d="M180.5,600.5 L380.5,600.5" fill-opacity="0" stroke="#737370" stroke-width="4"/>
    <path d="M300.5,360.5 L300.5,680.5" fill-opacity="0" stroke="#737370" stroke-width="4"/>
    <path d="M60.5,360.5 L60.5,680.5" fill-opacity="0" stroke="#737370" stroke-width="4"/>
    <path d="M900.5,660.5 L900.5,860.5" fill-opacity="0" stroke="#737370" stroke-width="4"/>
    <path d="M420.5,660.5 L420.5,860.5" fill-opacity="0" stroke="#737370" stroke-width="4"/>
    <path d="M660.5,540.5 L980.5,540.5" fill-opacity="0" stroke="#737370" stroke-width="4"/>
    <path d="M660.5,780.5 L980.5,780.5" fill-opacity="0" stroke="#737370" stroke-width="4"/>
    <g>
      <path d="M780.5,360.5 C714.226,360.5 660.5,306.774 660.5,240.5 C660.5,174.226 714.226,120.5 780.5,120.5 C846.774,120.5 900.5,174.226 900.5,240.5 C900.5,306.774 846.774,360.5 780.5,360.5 z" fill="url(#Gradient_1)"/>
      <path d="M780.5,360.5 C714.226,360.5 660.5,306.774 660.5,240.5 C660.5,174.226 714.226,120.5 780.5,120.5 C846.774,120.5 900.5,174.226 900.5,240.5 C900.5,306.774 846.774,360.5 780.5,360.5 z" fill-opacity="0" stroke="#294270" stroke-width="6"/>
    </g>
    <path d="M780.5,270.5 C714.226,270.5 660.5,257.069 660.5,240.5" fill-opacity="0" stroke="#294270" stroke-width="4"/>
    <path d="M750.5,240.5 C750.5,174.226 763.931,120.5 780.5,120.5" fill-opacity="0" stroke="#294270" stroke-width="4"/>
    <path d="M780.5,270.5 C846.774,270.5 900.5,257.069 900.5,240.5" fill-opacity="0" stroke="#294270" stroke-width="4"/>
    <path d="M750.5,240.5 C750.5,306.774 763.931,360.5 780.5,360.5" fill-opacity="0" stroke="#294270" stroke-width="4"/>
    <path d="M780.5,210.5 C714.226,210.5 660.5,223.931 660.5,240.5" fill-opacity="0" stroke="#294270" stroke-width="2" stroke-dasharray="6,4"/>
    <path d="M780.5,210.5 C846.774,210.5 900.5,223.931 900.5,240.5" fill-opacity="0" stroke="#294270" stroke-width="2" stroke-dasharray="6,4"/>
    <path d="M810.5,240.5 C810.5,174.226 797.069,120.5 780.5,120.5" fill-opacity="0" stroke="#294270" stroke-width="2" stroke-dasharray="6,4"/>
    <path d="M810.5,240.5 C810.5,306.774 797.069,360.5 780.5,360.5" fill-opacity="0" stroke="#294270" stroke-width="2" stroke-dasharray="6,4"/>
    <path d="M780.5,360.5 L780.5,120.5" fill-opacity="0" stroke="#294270" stroke-width="2" stroke-dasharray="12,10"/>
    <path d="M660.5,240.5 L900.5,240.5" fill-opacity="0" stroke="#294270" stroke-width="2" stroke-dasharray="12,10"/>
    <g>
      <path d="M660.5,780.5 C527.952,780.5 420.5,726.774 420.5,660.5 C420.5,594.226 527.952,540.5 660.5,540.5 C793.048,540.5 900.5,594.226 900.5,660.5 C900.5,726.774 793.048,780.5 660.5,780.5 z" fill="url(#Gradient_2)"/>
      <path d="M660.5,780.5 C527.952,780.5 420.5,726.774 420.5,660.5 C420.5,594.226 527.952,540.5 660.5,540.5 C793.048,540.5 900.5,594.226 900.5,660.5 C900.5,726.774 793.048,780.5 660.5,780.5 z" fill-opacity="0" stroke="#294270" stroke-width="6"/>
    </g>
    <path d="M601.208,660.5 C601.208,594.226 627.754,540.5 660.5,540.5" fill-opacity="0" stroke="#294270" stroke-width="4"/>
    <path d="M601.208,660.5 C601.208,726.774 627.754,780.5 660.5,780.5" fill-opacity="0" stroke="#294270" stroke-width="4"/>
    <path d="M660.5,598.093 C527.952,598.093 420.5,626.034 420.5,660.5" fill-opacity="0" stroke="#294270" stroke-width="2" stroke-dasharray="6,4"/>
    <path d="M660.5,598.093 C793.048,598.093 900.5,626.034 900.5,660.5" fill-opacity="0" stroke="#294270" stroke-width="2" stroke-dasharray="6,4"/>
    <path d="M720.757,660.5 C720.757,594.226 693.779,540.5 660.5,540.5" fill-opacity="0" stroke="#294270" stroke-width="2" stroke-dasharray="6,4"/>
    <path d="M720.757,660.5 C720.757,726.774 693.779,780.5 660.5,780.5" fill-opacity="0" stroke="#294270" stroke-width="2" stroke-dasharray="6,4"/>
    <path d="M660.5,780.5 L660.5,540.5" fill-opacity="0" stroke="#294270" stroke-width="2" stroke-dasharray="12,10"/>
    <path d="M420.5,660.5 L900.5,660.5" fill-opacity="0" stroke="#294270" stroke-width="2" stroke-dasharray="12,10"/>
    <g>
      <path d="M180.5,600.5 C114.226,600.5 60.5,493.048 60.5,360.5 C60.5,227.952 114.226,120.5 180.5,120.5 C246.774,120.5 300.5,227.952 300.5,360.5 C300.5,493.048 246.774,600.5 180.5,600.5 z" fill="url(#Gradient_3)"/>
      <path d="M180.5,600.5 C114.226,600.5 60.5,493.048 60.5,360.5 C60.5,227.952 114.226,120.5 180.5,120.5 C246.774,120.5 300.5,227.952 300.5,360.5 C300.5,493.048 246.774,600.5 180.5,600.5 z" fill-opacity="0" stroke="#294270" stroke-width="6"/>
    </g>
    <path d="M180.5,391.341 C114.226,391.341 60.5,377.533 60.5,360.5" fill-opacity="0" stroke="#294270" stroke-width="4"/>
    <path d="M140.5,360.5 C140.5,227.952 158.327,120.5 180.317,120.5" fill-opacity="0" stroke="#294270" stroke-width="4"/>
    <path d="M180.5,391.341 C246.774,391.341 300.5,377.533 300.5,360.5" fill-opacity="0" stroke="#294270" stroke-width="4"/>
    <path d="M140.5,360.5 C140.5,493.048 158.327,600.5 180.317,600.5" fill-opacity="0" stroke="#294270" stroke-width="4"/>
    <path d="M180.5,330.221 C114.226,330.221 60.5,343.777 60.5,360.5" fill-opacity="0" stroke="#294270" stroke-width="2" stroke-dasharray="6,4"/>
    <path d="M180.5,330.221 C246.774,330.221 300.5,343.777 300.5,360.5" fill-opacity="0" stroke="#294270" stroke-width="2" stroke-dasharray="6,4"/>
    <path d="M220.5,360.5 C220.5,227.952 202.509,120.5 180.317,120.5" fill-opacity="0" stroke="#294270" stroke-width="2" stroke-dasharray="6,4"/>
    <path d="M220.5,360.5 C220.5,493.048 202.509,600.5 180.317,600.5" fill-opacity="0" stroke="#294270" stroke-width="2" stroke-dasharray="6,4"/>
    <path d="M60.5,360.5 L300.5,360.5" fill-opacity="0" stroke="#294270" stroke-width="2" stroke-dasharray="20,14"/>
    <path d="M660.5,719.957 C527.952,719.957 420.5,693.337 420.5,660.5" fill-opacity="0" stroke="#294270" stroke-width="4"/>
    <path d="M660.5,719.957 C793.048,719.957 900.5,693.337 900.5,660.5" fill-opacity="0" stroke="#294270" stroke-width="4"/>
    <path d="M180.5,600.5 L180.5,120.5" fill-opacity="0" stroke="#294270" stroke-width="2" stroke-dasharray="12,10"/>
    <g>
      <path d="M960.5,136.9 L960.5,344.1" fill-opacity="0" stroke="#737370" stroke-width="4"/>
      <path d="M965.3,136.9 L960.5,124.1 L955.7,136.9 z" fill="#737370" fill-opacity="1" stroke="#737370" stroke-width="4" stroke-opacity="1"/>
      <path d="M955.7,344.1 L960.5,356.9 L965.3,344.1 z" fill="#737370" fill-opacity="1" stroke="#737370" stroke-width="4" stroke-opacity="1"/>
    </g>
    <g>
      <path d="M884.1,420.5 L676.9,420.5" fill-opacity="0" stroke="#737370" stroke-width="4"/>
      <path d="M884.1,425.3 L896.9,420.5 L884.1,415.7 z" fill="#737370" fill-opacity="1" stroke="#737370" stroke-width="4" stroke-opacity="1"/>
      <path d="M676.9,415.7 L664.1,420.5 L676.9,425.3 z" fill="#737370" fill-opacity="1" stroke="#737370" stroke-width="4" stroke-opacity="1"/>
    </g>
    <text transform="matrix(1, 0, 0, 1, 780, 401.5)">
      <tspan x="-48" y="9.5" font-family="PTMono-Bold" font-size="32" fill="#294270">width</tspan>
    </text>
    <text transform="matrix(1, 0, 0, 1, 1032.4, 240)">
      <tspan x="-57.6" y="9.5" font-family="PTMono-Bold" font-size="32" fill="#294270">height</tspan>
    </text>
    <g>
      <path d="M360.5,136.9 L360.5,584.1" fill-opacity="0" stroke="#737370" stroke-width="4"/>
      <path d="M365.3,136.9 L360.5,124.1 L355.7,136.9 z" fill="#737370" fill-opacity="1" stroke="#737370" stroke-width="4" stroke-opacity="1"/>
      <path d="M355.7,584.1 L360.5,596.9 L365.3,584.1 z" fill="#737370" fill-opacity="1" stroke="#737370" stroke-width="4" stroke-opacity="1"/>
    </g>
    <text transform="matrix(1, 0, 0, 1, 427.6, 360)">
      <tspan x="-57.6" y="9.5" font-family="PTMono-Bold" font-size="32" fill="#294270">height</tspan>
    </text>
    <g>
      <path d="M284.1,660.5 L76.9,660.5" fill-opacity="0" stroke="#737370" stroke-width="4"/>
      <path d="M284.1,665.3 L296.9,660.5 L284.1,655.7 z" fill="#737370" fill-opacity="1" stroke="#737370" stroke-width="4" stroke-opacity="1"/>
      <path d="M76.9,655.7 L64.1,660.5 L76.9,665.3 z" fill="#737370" fill-opacity="1" stroke="#737370" stroke-width="4" stroke-opacity="1"/>
    </g>
    <text transform="matrix(1, 0, 0, 1, 180, 641.5)">
      <tspan x="-48" y="9.5" font-family="PTMono-Bold" font-size="32" fill="#294270">width</tspan>
    </text>
    <g>
      <path d="M884.1,840.5 L436.9,840.5" fill-opacity="0" stroke="#737370" stroke-width="4"/>
      <path d="M884.1,845.3 L896.9,840.5 L884.1,835.7 z" fill="#737370" fill-opacity="1" stroke="#737370" stroke-width="4" stroke-opacity="1"/>
      <path d="M436.9,835.7 L424.1,840.5 L436.9,845.3 z" fill="#737370" fill-opacity="1" stroke="#737370" stroke-width="4" stroke-opacity="1"/>
    </g>
    <text transform="matrix(1, 0, 0, 1, 660, 818.5)">
      <tspan x="-48" y="9.5" font-family="PTMono-Bold" font-size="32" fill="#294270">width</tspan>
    </text>
    <g>
      <path d="M960.5,556.9 L960.5,764.1" fill-opacity="0" stroke="#737370" stroke-width="4"/>
      <path d="M965.3,556.9 L960.5,544.1 L955.7,556.9 z" fill="#737370" fill-opacity="1" stroke="#737370" stroke-width="4" stroke-opacity="1"/>
      <path d="M955.7,764.1 L960.5,776.9 L965.3,764.1 z" fill="#737370" fill-opacity="1" stroke="#737370" stroke-width="4" stroke-opacity="1"/>
    </g>
    <text transform="matrix(1, 0, 0, 1, 1032.4, 660)">
      <tspan x="-57.6" y="9.5" font-family="PTMono-Bold" font-size="32" fill="#294270">height</tspan>
    </text>
    <text transform="matrix(1, 0, 0, 1, 193.6, 89.236)">
      <tspan x="-153.6" y="9.5" font-family="PTMono-Bold" font-size="32" fill="#294270">prolate spheroid</tspan>
    </text>
    <text transform="matrix(1, 0, 0, 1, 789.6, 89.236)">
      <tspan x="-57.6" y="9.5" font-family="PTMono-Bold" font-size="32" fill="#294270">sphere</tspan>
    </text>
    <text transform="matrix(1, 0, 0, 1, 684, 508.5)">
      <tspan x="-144" y="9.5" font-family="PTMono-Bold" font-size="32" fill="#294270">oblate spheroid</tspan>
    </text>
  </g>
  <defs>
    <radialGradient id="Gradient_1" gradientUnits="userSpaceOnUse" cx="780.5" cy="240.5" r="120">
      <stop offset="0" stop-color="#FFFFFF"/>
      <stop offset="1" stop-color="#91CAF1"/>
    </radialGradient>
    <radialGradient id="Gradient_2" gradientUnits="userSpaceOnUse" cx="660.5" cy="660.5" r="240">
      <stop offset="0" stop-color="#FFFFFF"/>
      <stop offset="1" stop-color="#8FC7ED" stop-opacity="0.914"/>
    </radialGradient>
    <radialGradient id="Gradient_3" gradientUnits="userSpaceOnUse" cx="180.5" cy="360.5" r="120">
      <stop offset="0" stop-color="#FFFFFF"/>
      <stop offset="1" stop-color="#8FC7ED"/>
    </radialGradient>
  </defs>
</svg>
