<?xml version="1.0" encoding="UTF-8"?>
<!DOCTYPE svg PUBLIC "-//W3C//DTD SVG 1.1//EN" "http://www.w3.org/Graphics/SVG/1.1/DTD/svg11.dtd">
<svg version="1.1" xmlns="http://www.w3.org/2000/svg" xmlns:xlink="http://www.w3.org/1999/xlink" x="0px" y="0px" width="128" height="128" viewBox="0, 0, 128, 128">
  <g id="Background">
    <rect x="0" y="0" width="128" height="128" fill="#000000" fill-opacity="0"/>
  </g>
  <g id="Background">
    <path d="M18.095,6 L109.907,6 C116.561,6 122,11.439 122,18.093 L122,109.907 C122,116.561 116.561,122 109.907,122 L18.095,122 C11.441,122 6,116.561 6,109.907 L6,18.093 C6,11.439 11.441,6 18.095,6" fill="#727272"/>
    <path d="M60.841,26.875 C66.964,25.254 72.719,29.232 76.538,33.68 C82.396,40.531 85.903,49.112 88.046,57.852 C90.297,67.896 90.873,78.933 86.425,88.46 C83.652,94.685 77.793,99.338 71.097,100.754 C63.823,102.22 55.661,101.695 49.332,97.508 C43.368,93.585 40.07,86.68 38.92,79.824 C37.243,69.781 38.813,59.42 42.161,49.846 C44.253,43.932 47.185,38.179 51.267,33.415 C53.831,30.487 57.022,27.871 60.841,26.875" fill="#84D0F4"/>
    <path d="M70.345,96.602 C69.193,96.393 67.622,95.972 67.308,94.666 C67.203,93.356 68.197,92.31 68.933,91.265 C71.965,87.656 75.209,84.203 77.93,80.382 C80.862,76.354 83.319,72.065 85.465,67.617 C84.625,71.435 83.374,75.152 82.117,78.866 C81.091,81.706 82.908,83.839 81.621,86.578 C80.907,88.099 72.623,96.654 70.345,96.602" fill="#727272"/>
    <path d="M82.533,59.556 C82.789,61.633 82.921,64.114 81.263,65.635 C80.287,66.283 78.866,67.069 77.733,66.342 C76.752,65.471 76.742,64.027 76.546,62.766 C76.235,58.058 76.185,53.321 75.5,48.681 C74.825,43.745 73.628,38.95 72.093,34.256 C74.136,37.589 75.801,41.138 77.469,44.691 C79.592,49.468 81.676,54.359 82.533,59.556" fill="#727272"/>
    <path d="M13.577,62.407 L114.425,62.407 L114.425,87.135 L13.577,87.135 z" fill="#EBECEC"/>
    <path d="M13.577,60.667 L114.425,60.667 L116.165,60.667 L116.165,62.407 L116.165,87.135 L116.165,88.875 L114.425,88.875 L13.577,88.875 L11.837,88.875 L11.837,87.135 L11.837,62.407 L11.837,60.667 z M112.685,64.147 L15.317,64.147 L15.317,85.395 L112.685,85.395 z" fill="#727272"/>
    <path d="M25.638,63.908 L25.638,78.861 L22.158,78.861 L22.158,63.908 z" fill="#727272"/>
    <path d="M52.373,63.908 L52.373,78.861 L48.893,78.861 L48.893,63.908 z" fill="#727272"/>
    <path d="M79.107,63.908 L79.107,78.861 L75.627,78.861 L75.627,63.908 z" fill="#727272"/>
    <path d="M105.842,63.908 L105.842,78.861 L102.362,78.861 L102.362,63.908 z" fill="#727272"/>
    <path d="M32.617,63.908 L32.617,74.029 L29.137,74.029 L29.137,63.908 z" fill="#727272"/>
    <path d="M38.942,63.908 L38.942,74.029 L35.462,74.029 L35.462,63.908 z" fill="#727272"/>
    <path d="M45.272,63.908 L45.272,74.029 L41.792,74.029 L41.792,63.908 z" fill="#727272"/>
    <path d="M59.895,63.908 L59.895,74.029 L56.415,74.029 L56.415,63.908 z" fill="#727272"/>
    <path d="M66.22,63.908 L66.22,74.029 L62.74,74.029 L62.74,63.908 z" fill="#727272"/>
    <path d="M72.55,63.908 L72.55,74.029 L69.07,74.029 L69.07,63.908 z" fill="#727272"/>
    <path d="M85.41,63.908 L85.41,74.029 L81.93,74.029 L81.93,63.908 z" fill="#727272"/>
    <path d="M91.735,63.908 L91.735,74.029 L88.255,74.029 L88.255,63.908 z" fill="#727272"/>
    <path d="M98.065,63.908 L98.065,74.029 L94.585,74.029 L94.585,63.908 z" fill="#727272"/>
  </g>
  <defs/>
</svg>
